# xmcd CD Database Entry
#
# Track frame offsets:
# 150
# 14815
# 32729
# 48035
# 65485
# 89323
# 108729
# 126738
# 139017
# 154244
# 171744
# 196394
# 213718
#
# Disc length: 3049 seconds
#
# Revision: 2
# Processed by: cddbd v1.4PL0 Copyright (c) Steve Scherf et al.
# Submitted via: tcd 2.0b
#
DISCID=cc0be70d
DTITLE=Hradistan - O slunovratu
DYEAR=1900
DGENRE=
TTITLE0=Vterina v lednu
TTITLE1=Karneval
TTITLE2=Stopadesaty sonet o jaru
TTITLE3=Motlitba za vodu
TTITLE4=Rozhovor a Laska
TTITLE5=Svaty Jan
TTITLE6=Na slunci
TTITLE7=Kratky popis leta
TTITLE8=Sonet o lasce a modrem portugalu
TTITLE9=Chvile
TTITLE10=Nadeje s bukovymi kridly a mrtvi
TTITLE11=Pozdraveno budiz svetlo
TTITLE12=Podekovani
EXTD=Jiri Pavlica\nJan Skacel\nHradistan \na hoste
EXTT0=
EXTT1=
EXTT2=
EXTT3=
EXTT4=
EXTT5=
EXTT6=
EXTT7=
EXTT8=
EXTT9=
EXTT10=
EXTT11=
EXTT12=
PLAYORDER=
